<?xml version="1.0" encoding="iso-8859-1"?>
<!-- Generator: Adobe Illustrator 16.0.0, SVG Export Plug-In . SVG Version: 6.00 Build 0)  -->
<!DOCTYPE svg PUBLIC "-//W3C//DTD SVG 1.1//EN" "http://www.w3.org/Graphics/SVG/1.1/DTD/svg11.dtd">
<svg version="1.1" id="Capa_1" xmlns="http://www.w3.org/2000/svg" xmlns:xlink="http://www.w3.org/1999/xlink" x="0px" y="0px"
	 width="611.99px" height="611.991px" viewBox="0 0 611.99 611.991" style="enable-background:new 0 0 611.99 611.991;"
	 xml:space="preserve">
<g>
	<g id="_x33_1">
		<g>
			<path d="M450.976,134.934c-50.192-50.174-186.138-23.045-177.782-31.382L13.854,362.909c-18.473,18.549-18.473,48.508,0,66.98
				l158.953,159.01c18.474,18.473,48.451,18.473,66.924,0L499.07,329.485C490.715,337.86,523.483,207.441,450.976,134.934z
				 M370.132,266.796c-26.923,0-48.75-21.827-48.75-48.75c0-26.942,21.827-48.75,48.75-48.75s48.75,21.827,48.75,48.75
				C418.882,244.969,397.055,266.796,370.132,266.796z M496.878,63.42c-18.697,0-33.854,15.139-33.854,33.837
				s15.157,33.874,33.854,33.874c18.698,0,33.855-15.176,33.855-33.874S515.576,63.42,496.878,63.42z M578.135,9.237
				c-18.698,0-33.855,15.12-33.855,33.818c0,18.717,15.157,33.893,33.855,33.893s33.855-15.176,33.855-33.893
				C611.99,24.356,596.833,9.237,578.135,9.237z"/>
		</g>
	</g>
</g>
<g>
</g>
<g>
</g>
<g>
</g>
<g>
</g>
<g>
</g>
<g>
</g>
<g>
</g>
<g>
</g>
<g>
</g>
<g>
</g>
<g>
</g>
<g>
</g>
<g>
</g>
<g>
</g>
<g>
</g>
</svg>
