<?xml version="1.0" standalone="no"?>
<!DOCTYPE svg PUBLIC "-//W3C//DTD SVG 20010904//EN"
 "http://www.w3.org/TR/2001/REC-SVG-20010904/DTD/svg10.dtd">
<svg version="1.0" xmlns="http://www.w3.org/2000/svg"
 width="283.000000pt" height="300.000000pt" viewBox="0 0 283.000000 300.000000"
 preserveAspectRatio="xMidYMid meet">

<g transform="translate(0.000000,300.000000) scale(0.100000,-0.100000)"
fill="#000000" stroke="none">
<path d="M1200 2990 c-278 -39 -601 -176 -753 -319 -74 -69 -84 -120 -42 -210
l26 -55 -66 -59 c-65 -59 -136 -151 -156 -204 -6 -15 -32 -66 -59 -113 -66
-113 -80 -157 -89 -270 -5 -52 -18 -131 -30 -175 -46 -166 -37 -378 23 -557
14 -40 30 -104 36 -143 15 -94 54 -206 97 -283 49 -89 149 -192 225 -232 35
-18 76 -44 92 -57 45 -37 120 -72 192 -89 45 -10 82 -27 118 -53 149 -112 361
-171 616 -171 246 0 471 61 609 164 19 14 45 26 56 26 62 0 191 61 272 128 32
26 79 62 104 79 143 98 236 268 255 468 4 49 17 91 40 138 51 106 68 198 61
336 -4 76 -13 139 -26 181 -14 45 -21 92 -21 151 0 152 -10 183 -148 444 -50
95 -97 161 -153 217 l-47 47 39 53 c24 33 38 64 38 83 1 135 -253 322 -554
410 -160 46 -304 66 -505 70 -102 2 -214 0 -250 -5z m515 -41 c207 -42 467
-147 636 -257 58 -38 80 -60 102 -99 37 -68 35 -109 -6 -171 -19 -27 -36 -56
-39 -64 -15 -39 -100 -157 -125 -173 -65 -43 -168 -12 -246 74 -42 46 -54 97
-38 151 20 67 15 88 -26 108 -55 28 -216 79 -303 96 -191 38 -441 8 -707 -85
-48 -17 -89 -32 -90 -33 -1 -1 4 -24 12 -51 24 -77 20 -108 -22 -161 -20 -27
-46 -57 -57 -67 -51 -44 -136 -60 -191 -35 -57 26 -190 248 -202 336 -7 52 33
129 89 175 66 53 261 152 378 191 276 92 583 116 835 65z m-211 -632 c6 -27 5
-28 -21 -23 -15 4 -43 2 -60 -3 -21 -6 -46 -6 -68 0 -31 9 -35 13 -29 32 4 12
25 78 47 147 l40 125 42 -125 c23 -69 45 -138 49 -153z m-1084 -34 c0 -86 -23
-150 -79 -221 -16 -20 -38 -54 -49 -75 l-21 -39 -24 39 c-52 82 -51 78 -16
141 62 110 157 232 180 232 5 0 9 -35 9 -77z m2111 -36 c28 -40 63 -97 78
-127 l28 -55 -35 -59 -34 -58 -24 43 c-14 23 -40 63 -58 88 -18 25 -39 56 -45
68 -19 37 -33 132 -26 174 l7 39 29 -21 c17 -12 53 -53 80 -92z m-1172 26 c-1
-5 -28 -32 -60 -62 -43 -40 -70 -56 -104 -63 -26 -6 -51 -6 -55 -2 -13 13 56
91 99 114 35 19 122 28 120 13z m144 1 c3 -4 -1 -17 -9 -29 -13 -20 -19 -22
-55 -14 -25 6 -54 6 -75 0 -43 -12 -36 2 14 29 35 18 112 27 125 14z m32 -54
c7 -33 9 -35 48 -44 18 -4 27 -2 27 6 0 7 4 19 9 27 8 12 16 12 56 -4 42 -16
47 -20 42 -44 -4 -23 1 -30 49 -58 54 -31 54 -31 68 -11 l15 20 34 -21 c50
-31 61 -46 42 -61 -23 -19 -19 -33 25 -75 31 -30 43 -36 52 -27 20 20 34 14
62 -29 l27 -40 -21 -17 -22 -18 23 -49 c13 -28 24 -51 25 -53 1 -2 12 1 23 8
19 10 23 7 36 -24 20 -48 19 -73 -5 -81 -22 -7 -23 -11 -14 -79 6 -39 10 -46
29 -46 27 0 36 -26 28 -77 -5 -30 -9 -34 -29 -30 -24 4 -24 4 -40 -85 -5 -34
-4 -38 14 -38 30 0 32 -9 14 -63 -14 -45 -17 -47 -43 -42 -26 6 -30 2 -54 -45
l-26 -51 21 -17 21 -17 -32 -43 c-30 -41 -32 -42 -50 -26 -19 17 -21 16 -64
-26 -40 -39 -43 -45 -30 -60 8 -9 15 -19 15 -22 0 -2 -20 -19 -45 -37 -43 -31
-44 -31 -55 -11 -6 11 -17 20 -24 20 -7 0 -26 23 -41 52 l-28 52 34 25 c115
84 209 219 244 351 19 72 19 230 0 305 -46 176 -167 323 -331 400 -31 15 -58
24 -61 21 -3 -3 2 -26 11 -52 26 -76 26 -75 -61 -72 l-78 3 -25 83 c-13 45
-27 82 -31 82 -3 0 -17 -37 -31 -82 l-26 -83 -85 -3 -85 -3 23 73 c23 73 23
73 65 80 65 11 120 48 180 120 30 37 58 67 62 68 3 0 9 -13 13 -30z m-1038
-86 c-4 -59 -36 -146 -71 -196 l-16 -22 -11 33 -12 33 -41 -41 c-23 -23 -45
-41 -49 -41 -24 0 20 118 62 165 10 11 32 45 50 75 18 30 43 65 54 78 l21 23
9 -23 c5 -13 7 -51 4 -84z m1923 19 c19 -32 49 -77 66 -100 39 -52 71 -130 58
-143 -6 -6 -24 5 -49 30 l-39 40 -17 -32 -16 -31 -28 46 c-15 26 -33 68 -41
94 -14 48 -19 139 -8 168 6 14 8 14 23 1 9 -8 32 -41 51 -73z m-965 57 c3 -5
-16 -32 -42 -59 -36 -37 -62 -53 -102 -65 -58 -17 -111 -21 -111 -8 0 19 84
102 122 121 44 22 122 28 133 11z m-370 -112 c-7 -25 -83 -103 -92 -94 -10 10
7 54 33 85 31 38 69 43 59 9z m85 -47 c0 -5 -7 -15 -17 -22 -9 -8 -26 -37 -39
-65 -20 -45 -29 -54 -69 -69 -25 -10 -48 -15 -51 -12 -3 3 10 25 28 50 18 25
41 58 52 72 23 34 96 69 96 46z m-928 -84 l47 -83 -24 -60 c-14 -32 -28 -76
-31 -97 -12 -66 -54 -19 -54 61 0 26 -4 41 -10 37 -27 -17 -1 -135 33 -148 10
-4 16 -33 20 -100 4 -52 11 -105 17 -119 9 -19 7 -34 -8 -73 -12 -30 -22 -44
-25 -35 -31 96 -54 152 -78 188 -27 40 -29 50 -29 136 0 119 23 253 56 322 14
30 29 54 32 54 4 0 28 -38 54 -83z m2438 33 c32 -62 50 -155 56 -285 l6 -120
-36 -60 c-20 -32 -46 -90 -58 -128 l-22 -68 -22 48 c-18 42 -19 51 -8 74 7 14
16 68 20 120 6 81 10 96 30 112 28 21 40 75 26 114 l-10 28 -2 -35 c-1 -44
-21 -102 -36 -107 -7 -2 -14 11 -18 30 -4 19 -17 62 -31 97 -27 69 -29 60 33
167 20 34 39 60 44 57 5 -3 17 -23 28 -44z m-1745 -97 c-16 -53 -60 -113 -84
-113 -6 0 -11 17 -11 38 0 65 20 114 64 157 l41 40 3 -33 c2 -18 -4 -58 -13
-89z m-539 12 c19 -46 18 -188 -2 -276 -14 -64 -19 -72 -60 -99 -24 -17 -50
-43 -58 -58 l-14 -27 -10 40 c-40 154 -8 300 90 419 16 20 32 36 34 36 3 0 12
-16 20 -35z m2103 -4 c59 -75 94 -166 99 -259 3 -48 -1 -108 -8 -139 l-12 -55
-23 34 c-12 18 -39 42 -59 53 -33 18 -37 25 -52 95 -10 41 -18 109 -18 150 -1
71 18 160 35 160 4 0 21 -18 38 -39z m-1244 -68 c36 -26 65 -51 64 -57 -2 -29
-38 -111 -47 -109 -13 3 -10 -28 12 -162 21 -123 22 -120 -28 -86 -43 30 -45
34 -98 180 -5 13 -11 22 -13 19 -3 -3 6 -37 20 -77 23 -69 23 -72 5 -66 -16 5
-20 2 -19 -17 0 -19 2 -20 7 -5 7 16 13 14 62 -20 60 -42 236 -150 288 -177
l32 -17 0 78 c0 66 3 80 19 90 16 10 20 9 24 -5 3 -10 5 -7 6 9 1 16 11 33 26
43 30 20 30 20 51 -1 16 -16 16 -16 10 3 -3 11 3 51 14 89 21 75 26 112 11 85
-4 -8 -16 -44 -25 -80 l-18 -65 -58 0 -58 0 6 60 c3 33 9 63 15 66 6 4 -1 38
-17 85 -14 44 -26 82 -26 85 0 8 120 92 124 88 2 -2 13 -34 25 -71 l23 -68
118 0 118 0 20 -48 c32 -74 44 -138 44 -232 0 -126 -12 -161 -73 -205 -54 -38
-54 -39 -33 -111 7 -24 -68 -112 -136 -159 -34 -24 -43 -26 -51 -14 -13 20
-12 22 100 174 56 75 101 142 101 148 0 15 1 16 -118 -148 l-108 -147 49 -94
c27 -53 45 -100 41 -107 -4 -6 -3 -9 1 -4 10 9 47 -22 39 -34 -3 -5 -1 -9 5
-9 5 0 14 6 18 13 4 7 32 30 61 51 51 37 52 39 36 57 -16 18 -16 21 7 45 l24
25 22 -68 c15 -44 22 -92 22 -138 l0 -70 -61 -45 c-34 -25 -65 -46 -70 -48
-12 -5 -198 130 -192 139 7 12 13 13 -127 -26 -68 -19 -134 -35 -147 -35 -12
0 -78 16 -146 35 -117 33 -166 43 -122 26 17 -6 7 -16 -60 -66 -43 -32 -84
-61 -89 -66 -6 -4 -36 15 -69 45 -50 44 -57 55 -49 71 6 11 13 36 17 57 5 30
2 41 -17 64 -21 24 -23 32 -14 60 l10 33 40 -35 c23 -19 58 -42 80 -51 l39
-18 -27 -22 c-22 -19 -24 -24 -10 -29 9 -4 19 -4 22 0 4 3 0 6 -7 6 -9 0 -8 6
5 20 14 15 22 17 37 9 11 -6 22 -8 25 -6 2 3 -5 8 -17 12 -12 4 -20 10 -18 13
32 68 93 179 102 184 8 6 8 8 -1 8 -6 0 -33 -40 -60 -90 -26 -49 -51 -90 -54
-90 -4 0 -21 42 -40 93 -18 50 -41 106 -51 124 -28 46 -9 47 51 1 29 -22 55
-38 57 -35 3 3 0 23 -6 45 -10 41 -50 82 -78 82 -10 0 -13 6 -8 23 3 12 9 31
12 43 4 16 -11 32 -84 86 -58 42 -91 74 -94 89 -3 13 -9 31 -12 40 -6 13 -2
16 19 11 18 -3 34 2 51 19 43 40 57 76 52 141 -3 40 -1 58 8 58 26 0 64 42 64
71 l0 29 88 0 88 0 24 75 c13 41 25 75 27 75 1 0 32 -21 68 -47z m-305 -78 c0
-57 -3 -69 -25 -90 -13 -14 -34 -25 -46 -25 -12 0 -37 -9 -55 -21 -19 -11 -34
-18 -34 -15 0 41 123 216 151 216 5 0 9 -29 9 -65z m-134 13 c-4 -23 -16 -63
-27 -88 -11 -25 -24 -63 -28 -85 l-7 -40 -22 42 c-28 54 -28 72 4 119 26 39
74 94 82 94 3 0 2 -19 -2 -42z m-102 -55 c-18 -42 -15 -89 9 -136 14 -26 20
-50 16 -53 -5 -3 -22 -29 -37 -59 l-27 -53 -130 95 -130 94 3 52 c1 29 4 58 7
65 3 9 43 12 151 12 135 0 146 -1 138 -17z m1700 -13 c19 -95 27 -80 -89 -163
-58 -43 -108 -77 -111 -77 -2 0 -4 11 -4 25 0 20 -5 25 -24 25 -18 0 -25 7
-30 31 -10 49 -7 59 13 59 29 0 32 13 16 66 -8 27 -15 52 -15 57 0 4 54 7 119
7 l119 0 6 -30z m-1004 -174 c0 -115 -4 -177 -11 -182 -6 -3 -26 2 -44 12 -31
17 -35 23 -45 88 -6 39 -15 93 -19 119 l-8 48 56 44 c31 24 59 44 64 45 4 0 7
-78 7 -174z m97 125 c20 -14 22 -25 23 -102 0 -83 -1 -86 -32 -115 -73 -67
-68 -75 -68 106 l0 162 28 -18 c15 -9 37 -24 49 -33z m-630 -113 c-6 -44 -53
-111 -82 -116 -16 -4 -17 3 -13 59 4 58 7 65 43 96 34 29 40 31 48 17 5 -9 7
-34 4 -56z m-67 46 c0 0 -9 -9 -20 -19 -19 -18 -20 -17 -20 1 0 13 7 20 20 20
11 0 20 -1 20 -2z m-674 -99 c18 -32 40 -88 49 -125 16 -64 15 -66 -7 -115
-18 -41 -22 -68 -23 -145 0 -52 3 -114 8 -138 7 -41 6 -42 -13 -32 -60 32
-129 284 -117 433 6 78 42 190 60 184 6 -2 25 -30 43 -62z m2643 0 c44 -116
37 -250 -21 -424 -18 -55 -41 -105 -55 -119 -13 -13 -26 -22 -28 -20 -2 2 0
45 5 97 9 100 -1 194 -25 242 -20 37 -19 45 8 131 25 79 72 162 87 153 5 -3
18 -30 29 -60z m-2018 -15 l-9 -45 -1 51 c-1 28 2 54 7 58 11 12 13 -15 3 -64z
m-404 -7 c15 -23 18 -50 18 -183 0 -106 -5 -165 -14 -185 l-13 -30 -22 61
c-25 68 -56 122 -85 148 -19 17 -19 18 6 79 58 143 77 161 110 110z m401 -86
c7 -16 12 -49 12 -75 l-1 -47 -29 32 c-16 18 -34 50 -41 71 -10 34 -9 45 12
88 l22 49 7 -45 c4 -25 12 -58 18 -73z m1801 51 c57 -129 58 -134 29 -165 -23
-24 -67 -108 -93 -178 -6 -17 -10 -12 -22 25 -10 32 -13 86 -11 191 3 128 5
150 22 168 30 33 45 25 75 -41z m-939 47 c0 -2 -43 -40 -96 -84 -85 -70 -124
-89 -124 -61 0 8 89 87 144 128 26 19 76 31 76 17z m-98 -160 l-4 -55 -39 22
c-21 12 -39 24 -39 27 1 7 71 61 79 61 3 0 4 -25 3 -55z m-793 -47 c23 -40 27
-56 20 -70 -6 -10 -14 -16 -20 -13 -26 17 -62 135 -40 135 6 0 24 -23 40 -52z
m-457 -76 c14 -26 34 -72 43 -103 16 -51 16 -62 3 -115 l-15 -59 -17 40 c-10
22 -24 63 -32 90 l-14 50 3 -58 c3 -44 11 -68 33 -100 25 -36 28 -49 24 -89
l-5 -48 -50 60 c-69 83 -78 112 -73 246 3 85 8 118 22 139 16 25 19 26 35 11
10 -9 30 -38 43 -64z m2388 -1 c11 -61 13 -137 4 -204 -5 -36 -19 -61 -63
-114 l-56 -68 -8 49 c-7 42 -5 52 12 70 29 31 51 89 51 133 -1 35 -3 32 -24
-32 -12 -39 -27 -79 -33 -90 -11 -18 -12 -18 -20 10 -18 66 -9 137 25 210 41
87 70 121 89 103 7 -8 17 -38 23 -67z m-1791 20 c35 -33 42 -71 12 -71 -11 0
-23 9 -26 21 -9 29 -38 20 -49 -16 -6 -17 -11 -31 -12 -33 -1 -2 -12 1 -23 8
-26 14 -27 46 -1 88 25 41 57 42 99 3z m32 -174 c38 -59 95 -207 79 -207 -5 0
-28 15 -51 33 -56 42 -87 104 -95 192 -7 67 -6 69 11 55 10 -8 35 -41 56 -73z
m97 38 c12 -14 22 -33 22 -42 0 -12 -7 -10 -32 9 -18 13 -45 33 -60 44 -38 26
-35 33 10 23 20 -4 47 -20 60 -34z m-528 -158 c21 -62 48 -262 38 -273 -4 -3
-25 4 -48 16 -30 16 -45 18 -50 10 -4 -7 -21 9 -43 42 -29 42 -38 66 -43 115
-8 70 9 173 34 211 l16 25 37 -42 c22 -24 46 -68 59 -104z m2032 68 c6 -22 10
-79 10 -126 0 -83 -2 -89 -38 -143 -21 -32 -40 -52 -44 -46 -4 7 -21 4 -51 -9
l-44 -20 -3 44 c-8 112 46 294 104 352 26 26 27 26 41 8 7 -11 18 -38 25 -60z
m-1732 -21 c0 -32 43 -120 76 -155 14 -15 24 -37 24 -55 0 -35 -42 -123 -70
-149 -20 -18 -21 -18 -50 10 -35 34 -38 45 -10 45 13 0 20 7 20 18 0 29 11 34
38 16 36 -24 39 -9 4 21 -47 40 -84 123 -88 202 -4 57 -2 64 7 46 16 -30 29
-29 29 2 0 14 5 25 10 25 6 0 10 -12 10 -26z m1401 -77 c-27 -79 -55 -124
-107 -170 -23 -21 -43 -37 -45 -37 -2 0 -2 23 0 51 2 39 13 66 42 112 22 33
44 78 51 99 11 38 28 52 28 23 0 -22 13 -18 30 8 l15 22 3 -23 c2 -12 -6 -51
-17 -85z m-2001 18 c40 -21 155 -156 235 -276 64 -97 66 -101 72 -180 l6 -81
-39 17 c-180 75 -286 236 -310 472 -4 35 -4 63 0 63 4 0 20 -7 36 -15z m2535
-42 c-26 -225 -127 -393 -280 -465 -36 -17 -68 -29 -70 -27 -2 2 1 40 6 84 8
77 11 83 85 193 104 154 215 272 257 272 5 0 6 -26 2 -57z m-605 -178 c0 -32
2 -35 30 -35 40 0 38 -12 -9 -49 l-39 -31 -32 41 -33 40 34 35 c18 19 37 34
41 34 4 0 8 -16 8 -35z m-1420 -163 c93 -60 250 -181 250 -192 0 -4 -28 -2
-63 6 -197 41 -358 139 -416 252 -37 73 -30 77 62 31 45 -23 120 -66 167 -97z
m1710 74 c-33 -68 -113 -142 -204 -187 -72 -35 -273 -96 -283 -85 -7 6 150
130 242 191 98 66 259 147 263 134 2 -5 -6 -29 -18 -53z m-1473 -22 c-3 -5
-21 -18 -41 -28 -35 -18 -37 -19 -56 -1 -26 23 -25 29 7 71 l26 35 35 -34 c19
-19 32 -39 29 -43z m1124 25 l32 -41 -24 -19 c-13 -10 -26 -18 -29 -18 -3 0
-23 15 -45 34 l-40 35 30 25 c17 13 33 24 37 25 3 0 21 -19 39 -41z m-1198
-131 c-21 -24 -28 -23 -69 8 -37 28 -40 38 -24 80 l11 27 49 -48 c47 -46 49
-50 33 -67z m1124 76 l45 -37 -21 -21 -21 -21 -42 42 c-35 36 -40 44 -29 57
18 21 17 21 68 -20z m-992 -4 c16 -16 27 -32 24 -34 -2 -3 -25 -14 -51 -25
l-46 -19 -23 24 c-12 13 -20 27 -16 30 11 11 72 53 78 54 3 0 18 -13 34 -30z
m625 -11 c195 -17 380 -61 380 -89 0 -7 -24 -36 -52 -66 l-53 -53 -69 19
c-103 29 -272 50 -404 50 -131 0 -262 -23 -360 -63 -56 -22 -62 -23 -75 -8
-12 15 -47 98 -47 113 0 4 24 20 53 37 59 33 133 48 305 60 160 12 196 12 322
0z m490 -17 c0 -24 -65 -66 -87 -57 -15 6 -12 12 26 46 44 39 61 42 61 11z
m-1508 -81 c24 -16 69 -41 101 -55 53 -23 60 -30 82 -81 14 -31 25 -58 25 -62
0 -3 -22 -3 -49 0 -64 8 -148 48 -199 95 -35 32 -41 45 -47 91 -6 53 -6 53 19
47 14 -3 45 -19 68 -35z m1760 -17 c-2 -42 -8 -54 -40 -83 -47 -43 -151 -92
-208 -99 -52 -5 -54 1 -21 68 17 36 33 51 75 72 29 15 74 40 100 55 91 54 97
53 94 -13z m-301 -151 c-39 -78 -148 -155 -279 -198 -29 -9 -56 -14 -59 -11
-4 3 10 30 31 60 34 50 40 54 84 58 48 5 150 44 140 54 -3 3 -41 -7 -83 -21
-42 -15 -79 -25 -81 -22 -7 6 54 50 106 77 59 30 154 60 158 50 2 -5 -6 -26
-17 -47z m-1167 26 c60 -22 186 -101 170 -106 -5 -2 -43 8 -84 22 -93 32 -109
31 -46 -1 27 -14 72 -28 100 -31 49 -5 54 -8 90 -60 21 -30 36 -57 33 -59 -3
-3 -23 0 -45 5 -141 38 -282 143 -307 229 -8 29 15 29 89 1z m247 -105 c42
-41 84 -74 92 -74 26 0 28 16 3 28 -25 11 -82 79 -74 88 9 9 102 -28 144 -57
38 -26 104 -110 104 -132 0 -18 -124 4 -186 32 -61 28 -121 81 -175 155 -63
85 -16 65 92 -40z m719 88 c0 -20 -136 -164 -177 -189 -69 -40 -213 -69 -213
-42 0 21 63 101 103 130 35 25 135 64 143 56 9 -9 -49 -77 -75 -88 -33 -15
-32 -29 2 -29 14 0 44 23 82 64 33 35 76 73 95 85 40 24 40 24 40 13z"/>
<path d="M1275 2924 c-84 -9 -253 -45 -330 -70 -166 -54 -296 -122 -432 -226
-46 -35 -53 -45 -53 -75 0 -62 60 -163 97 -163 7 0 38 16 70 36 139 90 390
192 563 229 104 22 318 30 421 16 174 -25 358 -88 501 -172 46 -27 111 -63
145 -80 58 -29 63 -29 96 -15 43 18 67 60 67 118 0 56 -15 77 -100 133 -147
97 -394 199 -595 245 -89 21 -350 34 -450 24z m202 -31 c-9 -9 -19 -14 -23
-11 -10 10 6 28 24 28 15 0 15 -1 -1 -17z m3 -98 c0 -60 -3 -75 -15 -75 -12 0
-15 15 -15 75 0 60 3 75 15 75 12 0 15 -15 15 -75z m-206 5 l7 -60 40 0 c61 0
45 -24 -18 -28 -57 -3 -54 -9 -68 101 -6 42 -4 47 13 47 16 0 21 -10 26 -60z
m424 44 c24 -17 30 -44 8 -44 -7 0 -19 7 -26 15 -28 34 -74 7 -68 -41 4 -37
31 -53 59 -36 28 18 47 1 24 -22 -25 -24 -72 -20 -102 10 -21 21 -24 32 -19
62 10 64 73 92 124 56z m-569 -40 c28 -36 27 -79 -4 -109 -50 -51 -135 -17
-135 53 0 42 6 54 35 70 36 21 82 14 104 -14z m731 5 c0 -6 -8 -40 -17 -75
-13 -50 -21 -64 -36 -64 -13 0 -17 5 -13 18 3 9 10 37 16 62 6 25 13 51 15 58
5 15 35 16 35 1z m-975 -65 c24 -24 15 -56 -22 -79 -18 -11 -31 -24 -29 -30 2
-5 7 -17 11 -26 4 -10 0 -19 -9 -22 -12 -5 -24 9 -46 53 -17 33 -30 66 -30 73
0 14 60 44 92 46 9 1 24 -6 33 -15z m1163 -77 c3 -86 2 -88 -18 -77 -11 6 -20
19 -20 29 0 25 -58 47 -67 26 -6 -16 -29 -20 -37 -7 -3 5 18 35 46 66 36 41
57 56 72 54 19 -3 21 -10 24 -91z"/>
<path d="M1030 2784 c-28 -33 21 -101 58 -78 21 13 28 60 11 80 -15 19 -53 18
-69 -2z"/>
<path d="M817 2718 c-11 -9 -14 -18 -8 -27 12 -18 53 -4 49 17 -4 21 -20 25
-41 10z"/>
<path d="M1992 2697 c-9 -11 -10 -17 -2 -22 15 -9 23 -1 18 21 -3 15 -4 16
-16 1z"/>
<path d="M767 2447 c-58 -37 -46 -51 27 -33 53 14 65 28 46 51 -16 19 -16 19
-73 -18z"/>
<path d="M2048 2445 l-4 -35 48 0 c26 0 48 4 48 10 0 9 -68 60 -81 60 -4 0 -9
-16 -11 -35z"/>
<path d="M631 2350 c-54 -43 -65 -75 -36 -104 20 -19 75 -30 114 -21 45 10
108 60 131 105 20 39 20 39 1 50 -31 16 -66 12 -104 -14 -36 -25 -50 -25 -41
-1 12 29 -17 23 -65 -15z"/>
<path d="M2087 2374 c-46 -14 -48 -17 -42 -42 14 -56 86 -101 162 -102 54 0
73 8 83 36 13 33 4 50 -48 90 -50 38 -78 41 -155 18z"/>
<path d="M307 2159 c-15 -25 -27 -49 -27 -54 0 -14 31 18 46 47 26 50 9 55
-19 7z"/>
<path d="M2496 2190 c6 -24 50 -90 60 -90 6 0 -31 71 -51 95 -16 20 -16 19 -9
-5z"/>
<path d="M1204 2201 c-33 -20 -52 -41 -37 -41 9 0 81 59 73 60 -3 0 -19 -9
-36 -19z"/>
<path d="M422 2065 c-26 -55 -31 -92 -7 -58 20 29 46 103 37 103 -5 0 -18 -20
-30 -45z"/>
<path d="M2380 2110 c0 -21 49 -124 56 -117 3 3 1 21 -5 39 -14 41 -51 98 -51
78z"/>
<path d="M1280 2115 c-25 -13 -39 -24 -32 -25 14 0 92 38 92 45 0 9 -15 4 -60
-20z"/>
<path d="M1020 2065 c-7 -9 -11 -18 -8 -20 3 -3 11 1 18 10 7 9 11 18 8 20 -3
3 -11 -1 -18 -10z"/>
<path d="M1066 1964 c-10 -25 1 -29 14 -5 6 12 7 21 1 21 -5 0 -12 -7 -15 -16z"/>
<path d="M880 1909 c-6 -11 -10 -25 -7 -32 2 -6 9 3 15 21 12 36 8 42 -8 11z"/>
<path d="M336 1799 c-18 -60 -21 -125 -6 -134 6 -4 10 8 10 28 0 18 5 59 11
91 13 75 5 83 -15 15z"/>
<path d="M2480 1834 c1 -10 7 -57 14 -104 12 -80 13 -83 20 -45 4 26 1 61 -9
100 -17 63 -25 80 -25 49z"/>
<path d="M1719 1398 l-84 -193 28 -27 c15 -15 27 -36 27 -47 0 -33 -36 -26
-94 17 -28 21 -122 80 -209 132 -88 52 -174 110 -193 128 -19 18 -34 30 -34
26 0 -3 15 -20 33 -36 18 -18 41 -55 53 -89 21 -58 21 -59 2 -76 -23 -20 -8
-40 -130 172 -104 182 -96 170 -103 163 -3 -3 40 -85 96 -182 l102 -177 -20
-20 -20 -21 -98 134 c-54 73 -100 135 -102 137 -2 2 -6 2 -9 -1 -3 -4 40 -67
95 -140 56 -74 101 -137 101 -140 0 -3 -11 -13 -24 -22 -24 -15 -25 -14 -107
79 -46 52 -87 95 -92 95 -10 0 17 -34 107 -134 46 -52 56 -69 47 -80 -14 -16
11 -41 33 -33 19 7 36 -12 37 -42 1 -24 2 -24 8 4 5 21 2 33 -9 42 -13 10 -13
14 5 27 33 26 49 16 23 -14 -7 -8 3 -1 22 16 53 48 97 66 180 74 41 4 67 8 58
9 -13 1 -18 10 -18 32 l0 30 43 -23 c31 -18 41 -30 40 -45 -2 -15 6 -24 27
-33 16 -7 46 -30 65 -51 l35 -39 11 24 c6 13 20 27 30 29 13 3 19 14 19 32 0
23 72 162 177 343 14 23 21 42 15 42 -5 0 -54 -79 -107 -176 -96 -171 -98
-175 -117 -157 -18 18 -16 23 58 188 92 205 96 215 86 215 -5 0 -46 -87 -93
-192z m-403 -89 c3 -6 -3 -20 -14 -32 l-21 -21 -9 25 c-5 13 -13 34 -17 47 -7
23 -6 23 23 8 17 -9 34 -21 38 -27z m48 -28 c9 -15 -243 -214 -261 -207 -20 8
-24 3 115 123 101 86 133 105 146 84z m30 -17 c11 -4 16 -19 16 -45 0 -36 -2
-39 -29 -39 -23 0 -30 5 -34 28 -3 17 0 33 10 45 18 20 16 19 37 11z m-61 -64
c6 -23 -10 -37 -25 -22 -12 12 -4 42 11 42 5 0 11 -9 14 -20z m-43 -24 c0 -16
-18 -31 -27 -22 -8 8 5 36 17 36 5 0 10 -6 10 -14z m269 -9 c6 -8 8 -16 5 -20
-10 -9 -34 4 -34 19 0 18 14 18 29 1z m-322 -34 c-9 -9 -20 -13 -24 -9 -4 4
-1 11 7 16 25 16 35 11 17 -7z m363 -4 c0 -5 -4 -9 -10 -9 -5 0 -10 7 -10 16
0 8 5 12 10 9 6 -3 10 -10 10 -16z m39 -23 c8 -10 9 -16 1 -21 -13 -8 -30 3
-30 21 0 18 14 18 29 0z"/>
<path d="M1666 1389 c-4 -23 -5 -44 -2 -46 2 -2 7 14 11 37 4 23 5 43 2 46 -2
3 -7 -14 -11 -37z"/>
<path d="M1571 1374 c0 -12 8 -28 20 -36 19 -12 20 -17 9 -57 -10 -36 -14 -42
-32 -38 -27 7 -11 -6 26 -22 24 -10 27 -10 19 1 -16 20 8 94 30 90 9 -2 17 2
17 8 0 5 -3 9 -7 8 -19 -6 -72 26 -76 45 l-4 22 -2 -21z"/>
<path d="M1478 1163 c7 -3 16 -2 19 1 4 3 -2 6 -13 5 -11 0 -14 -3 -6 -6z"/>
<path d="M1641 1024 c0 -11 3 -14 6 -6 3 7 2 16 -1 19 -3 4 -6 -2 -5 -13z"/>
<path d="M1630 990 c-12 -8 -11 -10 8 -10 12 0 22 5 22 10 0 13 -11 13 -30 0z"/>
<path d="M1158 983 c7 -3 16 -2 19 1 4 3 -2 6 -13 5 -11 0 -14 -3 -6 -6z"/>
<path d="M1218 973 c12 -2 32 -2 45 0 12 2 2 4 -23 4 -25 0 -35 -2 -22 -4z"/>
<path d="M1538 973 c12 -2 32 -2 45 0 12 2 2 4 -23 4 -25 0 -35 -2 -22 -4z"/>
<path d="M1338 963 c6 -2 18 -2 25 0 6 3 1 5 -13 5 -14 0 -19 -2 -12 -5z"/>
<path d="M1443 963 c9 -2 23 -2 30 0 6 3 -1 5 -18 5 -16 0 -22 -2 -12 -5z"/>
<path d="M1387 952 c7 -4 13 -37 15 -77 l3 -70 5 76 c5 70 4 75 -15 77 -12 1
-15 -2 -8 -6z"/>
<path d="M1088 773 c7 -3 16 -2 19 1 4 3 -2 6 -13 5 -11 0 -14 -3 -6 -6z"/>
<path d="M1698 773 c7 -3 16 -2 19 1 4 3 -2 6 -13 5 -11 0 -14 -3 -6 -6z"/>
<path d="M1138 763 c6 -2 18 -2 25 0 6 3 1 5 -13 5 -14 0 -19 -2 -12 -5z"/>
<path d="M1643 763 c9 -2 23 -2 30 0 6 3 -1 5 -18 5 -16 0 -22 -2 -12 -5z"/>
<path d="M1203 753 c9 -2 23 -2 30 0 6 3 -1 5 -18 5 -16 0 -22 -2 -12 -5z"/>
<path d="M1578 753 c6 -2 18 -2 25 0 6 3 1 5 -13 5 -14 0 -19 -2 -12 -5z"/>
<path d="M1258 743 c6 -2 18 -2 25 0 6 3 1 5 -13 5 -14 0 -19 -2 -12 -5z"/>
<path d="M1528 743 c7 -3 16 -2 19 1 4 3 -2 6 -13 5 -11 0 -14 -3 -6 -6z"/>
<path d="M1768 743 c7 -3 16 -2 19 1 4 3 -2 6 -13 5 -11 0 -14 -3 -6 -6z"/>
<path d="M1058 733 c7 -3 16 -2 19 1 4 3 -2 6 -13 5 -11 0 -14 -3 -6 -6z"/>
<path d="M1444 714 c-37 -25 -39 -26 -68 -9 l-31 17 30 -25 c29 -25 30 -25 50
-7 11 11 36 26 55 34 19 8 28 15 19 16 -9 0 -33 -12 -55 -26z"/>
<path d="M1401 714 c0 -11 3 -14 6 -6 3 7 2 16 -1 19 -3 4 -6 -2 -5 -13z"/>
<path d="M1698 723 c7 -3 16 -2 19 1 4 3 -2 6 -13 5 -11 0 -14 -3 -6 -6z"/>
<path d="M884 1699 c-19 -22 -19 -22 4 -10 12 6 22 16 22 21 0 15 -5 12 -26
-11z"/>
<path d="M751 1717 c-16 -41 -13 -57 5 -24 8 16 13 34 11 40 -3 7 -10 -1 -16
-16z"/>
<path d="M837 1543 c-4 -3 -7 -11 -7 -17 0 -6 5 -5 12 2 6 6 9 14 7 17 -3 3
-9 2 -12 -2z"/>
<path d="M85 1415 c-12 -66 -10 -159 5 -214 6 -23 12 -41 13 -40 1 2 0 72 -3
154 -5 131 -6 144 -15 100z"/>
<path d="M2741 1344 c-1 -61 -4 -127 -7 -145 -5 -30 -4 -32 7 -14 17 26 24
189 11 235 -8 29 -10 16 -11 -76z"/>
<path d="M317 1386 c-11 -27 -8 -108 3 -101 14 9 22 67 12 94 -7 21 -10 22
-15 7z"/>
<path d="M720 1378 c0 -9 5 -20 10 -23 13 -8 13 5 0 25 -8 13 -10 13 -10 -2z"/>
<path d="M2507 1386 c-11 -29 -8 -71 8 -92 13 -18 14 -16 14 26 0 25 -4 54 -8
64 -7 18 -8 18 -14 2z"/>
<path d="M874 1016 c10 -42 35 -100 41 -94 5 4 -33 109 -42 118 -3 3 -3 -8 1
-24z"/>
<path d="M380 966 c0 -3 5 -15 10 -28 6 -13 17 -52 24 -88 l14 -65 1 53 c1 50
-20 115 -40 128 -5 3 -9 3 -9 0z"/>
<path d="M2430 938 c-24 -40 -34 -97 -21 -128 10 -24 10 -24 10 7 1 17 10 59
20 92 10 34 17 61 15 61 -2 0 -13 -14 -24 -32z"/>
<path d="M210 794 c0 -30 33 -116 61 -153 17 -24 32 -41 34 -39 2 1 -19 48
-46 103 -27 55 -49 95 -49 89z"/>
<path d="M2600 752 c-12 -31 -34 -76 -47 -100 -33 -58 -23 -65 15 -10 28 41
69 154 60 164 -3 2 -15 -22 -28 -54z"/>
<path d="M573 525 c15 -14 38 -25 50 -25 18 1 15 5 -18 25 -51 32 -68 32 -32
0z"/>
<path d="M2235 528 c-22 -12 -35 -23 -28 -25 13 -5 68 22 78 37 9 15 -6 11
-50 -12z"/>
<path d="M1326 504 c-20 -19 -21 -58 -2 -73 24 -20 70 -10 74 17 3 17 -2 22
-19 22 -17 0 -19 -3 -10 -14 9 -10 9 -16 1 -21 -16 -10 -41 15 -38 39 2 17 10
21 36 19 27 -1 31 1 21 13 -15 19 -44 18 -63 -2z"/>
<path d="M1477 502 c-34 -37 -15 -82 33 -82 51 0 69 55 28 84 -29 21 -41 20
-61 -2z m61 -28 c2 -11 -4 -27 -13 -34 -22 -19 -50 9 -40 39 9 29 49 25 53 -5z"/>
<path d="M1230 478 l-1 -33 -22 28 c-33 40 -46 35 -40 -15 7 -55 23 -73 23
-27 l1 34 20 -27 c11 -16 25 -28 30 -28 12 0 12 87 -1 95 -6 4 -10 -7 -10 -27z"/>
<path d="M1618 458 c-3 -24 -4 -44 -4 -44 6 -8 66 -13 66 -5 0 5 -10 11 -22
13 -20 3 -23 8 -20 41 2 20 -1 37 -6 37 -6 0 -12 -19 -14 -42z"/>
<path d="M1047 473 c-3 -5 -8 -30 -12 -58 l-7 -50 22 23 c24 25 31 27 48 10
25 -25 22 2 -4 41 -26 40 -38 49 -47 34z m33 -44 c0 -5 -4 -9 -10 -9 -5 0 -10
7 -10 16 0 8 5 12 10 9 6 -3 10 -10 10 -16z"/>
<path d="M1756 439 c-26 -39 -29 -66 -4 -41 17 17 24 15 49 -10 l21 -23 -7 50
c-11 80 -20 84 -59 24z m30 -16 c-10 -10 -19 5 -10 18 6 11 8 11 12 0 2 -7 1
-15 -2 -18z"/>
<path d="M550 365 c0 -13 106 -56 148 -61 42 -4 37 -1 -48 31 -104 38 -100 37
-100 30z"/>
<path d="M2180 333 c-92 -33 -93 -34 -43 -29 50 5 125 35 138 56 3 5 5 10 3 9
-2 0 -46 -16 -98 -36z"/>
</g>
</svg>
