<?xml version="1.0" standalone="no"?>
<!DOCTYPE svg PUBLIC "-//W3C//DTD SVG 20010904//EN"
 "http://www.w3.org/TR/2001/REC-SVG-20010904/DTD/svg10.dtd">
<svg version="1.0" xmlns="http://www.w3.org/2000/svg"
 width="68.000000pt" height="68.000000pt" viewBox="0 0 68.000000 68.000000"
 preserveAspectRatio="xMidYMid meet">

<g transform="translate(0.000000,68.000000) scale(0.100000,-0.100000)"
fill="#000000" stroke="none">
<path d="M190 435 c30 -30 57 -55 59 -55 3 0 -19 25 -49 55 -30 30 -57 55 -59
55 -3 0 19 -25 49 -55z"/>
<path d="M314 325 c-21 -22 -25 -33 -22 -78 l3 -52 63 -3 62 -3 0 56 c0 46 -4
60 -25 80 -31 32 -50 31 -81 0z"/>
<path d="M207 164 c-4 -4 -7 -18 -7 -31 l0 -23 156 0 155 0 -3 28 -3 27 -146
3 c-80 1 -148 -1 -152 -4z"/>
</g>
</svg>
