<svg width="68" height="68" version="1.1" xmlns="http://www.w3.org/2000/svg"><path fill="rgb(0,0,0)" stroke="rgb(0,0,0)" stroke-width="1" opacity="0" d="M 0 0 L 68 0 L 68 68 L 0 68 L 0 0 Z M 33 10 L 33 27 L 31 27 L 30 23 L 28 20 L 28 18 L 25 18 L 25 21 L 28 28 L 29 29 L 27 29 L 16 18 L 13 18 L 13 20 L 25 32 L 23 33 L 18 30 L 16 30 L 13 29 L 12 31 L 23 35 Q 23 38 23 38 L 5 38 L 6 40 L 23 40 L 23 50 Q 19 49 18 52 L 20 53 L 18 58 L 51 58 L 52 57 L 51 52 Q 50 49 47 50 L 47 40 L 64 40 L 64 38 L 47 38 L 46 36 L 56 31 Q 58 32 57 30 L 56 30 L 55 29 L 47 33 L 44 32 L 56 19 L 55 19 L 54 18 L 43 29 L 40 29 L 42 27 L 42 25 L 45 19 L 41 18 L 41 21 L 38 26 L 38 28 L 36 28 L 36 11 Q 36 10 33 10 Z "></path><path fill="rgb(0,0,0)" stroke="rgb(0,0,0)" stroke-width="1" opacity="0" d="M 27.5 21 L 27.5 22 L 27.5 21 Z "></path><path fill="rgb(0,0,0)" stroke="rgb(0,0,0)" stroke-width="1" opacity="0" d="M 41.5 22 L 41.5 23 L 41.5 22 Z "></path><path fill="rgb(0,0,0)" stroke="rgb(0,0,0)" stroke-width="1" opacity="0" d="M 40.5 24 L 40.5 25 L 40.5 24 Z "></path><path fill="rgb(0,0,0)" stroke="rgb(0,0,0)" stroke-width="1" opacity="0" d="M 29.5 26 L 29.5 27 L 29.5 26 Z "></path><path fill="rgb(163,210,231)" stroke="rgb(163,210,231)" stroke-width="1" opacity="0.43137254901960786" d="M 35.5 10 L 35.5 11 L 35.5 10 Z "></path><path fill="rgb(163,210,231)" stroke="rgb(163,210,231)" stroke-width="1" opacity="0.43137254901960786" d="M 27.5 18 L 27.5 19 L 27.5 18 Z "></path><path fill="rgb(163,210,231)" stroke="rgb(163,210,231)" stroke-width="1" opacity="0.43137254901960786" d="M 43.5 18 L 43.5 19 L 43.5 18 Z "></path><path fill="rgb(163,210,231)" stroke="rgb(163,210,231)" stroke-width="1" opacity="0.43137254901960786" d="M 55.5 19 L 56 19.5 L 43.5 32 L 43 31.5 L 55.5 19 Z "></path><path fill="rgb(163,210,231)" stroke="rgb(163,210,231)" stroke-width="1" opacity="0.43137254901960786" d="M 27.5 20 L 29 20.5 L 27.5 21 L 27.5 20 Z "></path><path fill="rgb(163,210,231)" stroke="rgb(163,210,231)" stroke-width="1" opacity="0.43137254901960786" d="M 43.5 20 L 43.5 21 L 43.5 20 Z "></path><path fill="rgb(163,210,231)" stroke="rgb(163,210,231)" stroke-width="1" opacity="0.43137254901960786" d="M 41.5 23 L 41.5 24 L 41.5 23 Z "></path><path fill="rgb(163,210,231)" stroke="rgb(163,210,231)" stroke-width="1" opacity="0.43137254901960786" d="M 30.5 25 L 30.5 26 L 30.5 25 Z "></path><path fill="rgb(163,210,231)" stroke="rgb(163,210,231)" stroke-width="1" opacity="0.43137254901960786" d="M 41.5 25 L 41.5 26 L 41.5 25 Z "></path><path fill="rgb(163,210,231)" stroke="rgb(163,210,231)" stroke-width="1" opacity="0.43137254901960786" d="M 38.5 28 L 38.5 29 L 38.5 28 Z "></path><path fill="rgb(163,210,231)" stroke="rgb(163,210,231)" stroke-width="1" opacity="0.43137254901960786" d="M 14.5 30 L 14.5 31 L 14.5 30 Z "></path><path fill="rgb(163,210,231)" stroke="rgb(163,210,231)" stroke-width="1" opacity="0.43137254901960786" d="M 16.5 30 L 16.5 31 L 16.5 30 Z "></path><path fill="rgb(163,210,231)" stroke="rgb(163,210,231)" stroke-width="1" opacity="0.43137254901960786" d="M 54.5 31 L 54.5 32 L 54.5 31 Z "></path><path fill="rgb(163,210,231)" stroke="rgb(163,210,231)" stroke-width="1" opacity="0.43137254901960786" d="M 21.5 32 L 21.5 33 L 21.5 32 Z "></path><path fill="rgb(163,210,231)" stroke="rgb(163,210,231)" stroke-width="1" opacity="0.43137254901960786" d="M 47.5 33 Q 49 34 46.5 35 L 45 34.5 L 47.5 33 Z "></path><path fill="rgb(163,210,231)" stroke="rgb(163,210,231)" stroke-width="1" opacity="0.43137254901960786" d="M 49.5 33 L 49.5 34 L 49.5 33 Z "></path><path fill="rgb(163,210,231)" stroke="rgb(163,210,231)" stroke-width="1" opacity="0.43137254901960786" d="M 63.5 38 L 63.5 39 L 63.5 38 Z "></path><path fill="rgb(163,210,231)" stroke="rgb(163,210,231)" stroke-width="1" opacity="0.43137254901960786" d="M 46.5 39 L 47 48.5 L 46 48.5 L 46.5 39 Z "></path><path fill="rgb(163,210,231)" stroke="rgb(163,210,231)" stroke-width="1" opacity="0.43137254901960786" d="M 20.5 50 L 21 51.5 L 20 51.5 L 20.5 50 Z "></path><path fill="rgb(163,210,231)" stroke="rgb(163,210,231)" stroke-width="1" opacity="0.43137254901960786" d="M 22.5 50 L 24 50.5 L 22.5 51 L 22.5 50 Z "></path><path fill="rgb(163,210,231)" stroke="rgb(163,210,231)" stroke-width="1" opacity="0.43137254901960786" d="M 47.5 50 L 49 50.5 L 47.5 51 L 47.5 50 Z "></path><path fill="rgb(163,210,231)" stroke="rgb(163,210,231)" stroke-width="1" opacity="0.43137254901960786" d="M 50.5 51 L 50.5 52 L 50.5 51 Z "></path><path fill="rgb(186,100,121)" stroke="rgb(186,100,121)" stroke-width="1" opacity="0.9568627450980393" d="M 14.5 19 L 25 29.5 L 24.5 30 L 14 19.5 L 14.5 19 Z "></path><path fill="rgb(186,100,121)" stroke="rgb(186,100,121)" stroke-width="1" opacity="0.9568627450980393" d="M 31.5 28 Q 35.25 27 34 30 Q 30.17 29.25 29 32.5 Q 29.67 35.13 27 34 L 27 38 L 25 38 L 25 35.5 L 28 31.5 L 28 30 Q 30.5 30.5 31.5 28 Z "></path><path fill="rgb(186,100,121)" stroke="rgb(186,100,121)" stroke-width="1" opacity="0.9568627450980393" d="M 25.5 39 L 27 39.5 L 25.5 40 L 25.5 39 Z "></path><path fill="rgb(186,100,121)" stroke="rgb(186,100,121)" stroke-width="1" opacity="0.9568627450980393" d="M 25.5 41 L 27 41.5 L 25.5 42 L 25.5 41 Z "></path><path fill="rgb(186,100,121)" stroke="rgb(186,100,121)" stroke-width="1" opacity="0.9568627450980393" d="M 25.5 43 L 27 47.5 L 25 48 L 25.5 43 Z "></path><path fill="rgb(10,172,225)" stroke="rgb(10,172,225)" stroke-width="1" opacity="0.9411764705882353" d="M 35.5 11 L 36 26.5 L 35 26.5 L 35.5 11 Z "></path><path fill="rgb(10,172,225)" stroke="rgb(10,172,225)" stroke-width="1" opacity="0.9411764705882353" d="M 16.5 19 L 27 29.5 L 26.5 30 L 16 19.5 L 16.5 19 Z "></path><path fill="rgb(10,172,225)" stroke="rgb(10,172,225)" stroke-width="1" opacity="0.9411764705882353" d="M 27.5 19 L 27.5 20 L 27.5 19 Z "></path><path fill="rgb(10,172,225)" stroke="rgb(10,172,225)" stroke-width="1" opacity="0.9411764705882353" d="M 43.5 19 L 43.5 20 L 43.5 19 Z "></path><path fill="rgb(10,172,225)" stroke="rgb(10,172,225)" stroke-width="1" opacity="0.9411764705882353" d="M 28.5 21 L 28.5 22 L 28.5 21 Z "></path><path fill="rgb(10,172,225)" stroke="rgb(10,172,225)" stroke-width="1" opacity="0.9411764705882353" d="M 29.5 24 L 29.5 25 L 29.5 24 Z "></path><path fill="rgb(10,172,225)" stroke="rgb(10,172,225)" stroke-width="1" opacity="0.9411764705882353" d="M 41.5 24 L 41.5 25 L 41.5 24 Z "></path><path fill="rgb(10,172,225)" stroke="rgb(10,172,225)" stroke-width="1" opacity="0.9411764705882353" d="M 30.5 26 L 30.5 27 L 30.5 26 Z "></path><path fill="rgb(10,172,225)" stroke="rgb(10,172,225)" stroke-width="1" opacity="0.9411764705882353" d="M 35 28 L 40.5 29 L 45 33.5 L 44.5 34 L 40.5 30 L 39 30.5 L 42 33.5 Q 41.25 36.75 43 37.5 L 43 48.5 L 42 48.5 L 42 37.5 L 37.5 33 L 33.5 33 L 29 37.5 L 29 48.5 L 27 49 L 27 37.5 L 28 34.5 L 32.5 30 Q 36.25 31 35 28 Z "></path><path fill="rgb(10,172,225)" stroke="rgb(10,172,225)" stroke-width="1" opacity="0.9411764705882353" d="M 15.5 30 L 15.5 31 L 15.5 30 Z "></path><path fill="rgb(10,172,225)" stroke="rgb(10,172,225)" stroke-width="1" opacity="0.9411764705882353" d="M 55.5 30 L 55.5 31 L 55.5 30 Z "></path><path fill="rgb(10,172,225)" stroke="rgb(10,172,225)" stroke-width="1" opacity="0.9411764705882353" d="M 17.5 31 L 17.5 32 L 17.5 31 Z "></path><path fill="rgb(10,172,225)" stroke="rgb(10,172,225)" stroke-width="1" opacity="0.9411764705882353" d="M 53.5 31 L 53.5 32 L 53.5 31 Z "></path><path fill="rgb(10,172,225)" stroke="rgb(10,172,225)" stroke-width="1" opacity="0.9411764705882353" d="M 20.5 32 L 20.5 33 L 20.5 32 Z "></path><path fill="rgb(10,172,225)" stroke="rgb(10,172,225)" stroke-width="1" opacity="0.9411764705882353" d="M 50.5 32 L 50.5 33 L 50.5 32 Z "></path><path fill="rgb(10,172,225)" stroke="rgb(10,172,225)" stroke-width="1" opacity="0.9411764705882353" d="M 22.5 33 L 22.5 34 L 22.5 33 Z "></path><path fill="rgb(10,172,225)" stroke="rgb(10,172,225)" stroke-width="1" opacity="0.9411764705882353" d="M 48.5 33 L 48.5 34 L 48.5 33 Z "></path><path fill="rgb(10,172,225)" stroke="rgb(10,172,225)" stroke-width="1" opacity="0.9411764705882353" d="M 45.5 35 L 46 36.5 L 45 36.5 L 45.5 35 Z "></path><path fill="rgb(10,172,225)" stroke="rgb(10,172,225)" stroke-width="1" opacity="0.9411764705882353" d="M 45.5 48 L 45.5 49 L 45.5 48 Z "></path><path fill="rgb(239,228,233)" stroke="rgb(239,228,233)" stroke-width="1" opacity="0.1843137254901961" d="M 33.5 10 L 35 10.5 L 35 26.5 L 35.5 28 L 34 26.5 L 34 11.5 L 33.5 10 Z "></path><path fill="rgb(239,228,233)" stroke="rgb(239,228,233)" stroke-width="1" opacity="0.1843137254901961" d="M 13 18 L 16 18 L 16 19.5 L 26 29.5 Q 24 30.5 26 31.5 L 24.5 33 L 23 32.5 L 25 31.5 L 13 19.5 L 13 18 Z M 15 19 L 15 20 L 15 19 Z M 16 20 L 16 21 L 16 20 Z M 17 21 L 17 22 L 17 21 Z M 18 22 L 18 23 L 18 22 Z M 19 23 L 19 24 L 19 23 Z M 20 24 L 20 25 L 20 24 Z M 21 25 L 21 26 L 21 25 Z M 22 26 L 22 27 L 22 26 Z M 23 27 L 23 28 L 23 27 Z M 24 28 L 24 29 L 24 28 Z M 25 29 L 25 30 L 25 29 Z "></path><path fill="rgb(239,228,233)" stroke="rgb(239,228,233)" stroke-width="1" opacity="0.1843137254901961" d="M 25.5 18 L 27 18 L 27 21 L 25 20.5 L 26 19.5 L 25.5 18 Z "></path><path fill="rgb(239,228,233)" stroke="rgb(239,228,233)" stroke-width="1" opacity="0.1843137254901961" d="M 41.5 18 Q 44.13 17.17 43 20.5 L 43.5 22 Q 42.5 20 41.5 22 L 40 21.5 L 42 21 L 41.5 18 Z "></path><path fill="rgb(239,228,233)" stroke="rgb(239,228,233)" stroke-width="1" opacity="0.1843137254901961" d="M 44.5 18 L 44.5 19 L 44.5 18 Z "></path><path fill="rgb(239,228,233)" stroke="rgb(239,228,233)" stroke-width="1" opacity="0.1843137254901961" d="M 53.5 18 L 53.5 19 L 53.5 18 Z "></path><path fill="rgb(239,228,233)" stroke="rgb(239,228,233)" stroke-width="1" opacity="0.1843137254901961" d="M 55.5 18 L 55.5 19 L 55.5 18 Z "></path><path fill="rgb(239,228,233)" stroke="rgb(239,228,233)" stroke-width="1" opacity="0.1843137254901961" d="M 26.5 22 L 28.5 23 L 30 22.5 L 29 24.5 L 29.5 26 L 28.5 25 L 27 25.5 L 28 23.5 L 26 22.5 L 26.5 22 Z "></path><path fill="rgb(239,228,233)" stroke="rgb(239,228,233)" stroke-width="1" opacity="0.1843137254901961" d="M 39.5 23 L 41 23.5 L 39.5 24 L 39.5 23 Z "></path><path fill="rgb(239,228,233)" stroke="rgb(239,228,233)" stroke-width="1" opacity="0.1843137254901961" d="M 42.5 23 L 42.5 24 L 42.5 23 Z "></path><path fill="rgb(239,228,233)" stroke="rgb(239,228,233)" stroke-width="1" opacity="0.1843137254901961" d="M 38.5 25 Q 39.5 27 40.5 25 L 42 26.5 L 40 26.5 L 39.5 29 L 38 26.5 L 38.5 25 Z "></path><path fill="rgb(239,228,233)" stroke="rgb(239,228,233)" stroke-width="1" opacity="0.1843137254901961" d="M 28.5 27 L 30 27.5 L 28.5 28 L 28.5 27 Z "></path><path fill="rgb(239,228,233)" stroke="rgb(239,228,233)" stroke-width="1" opacity="0.1843137254901961" d="M 12.5 29 L 13 30.5 L 12 30.5 L 12.5 29 Z "></path><path fill="rgb(239,228,233)" stroke="rgb(239,228,233)" stroke-width="1" opacity="0.1843137254901961" d="M 14.5 29 L 14.5 30 L 14.5 29 Z "></path><path fill="rgb(239,228,233)" stroke="rgb(239,228,233)" stroke-width="1" opacity="0.1843137254901961" d="M 27.5 29 L 27.5 30 L 27.5 29 Z "></path><path fill="rgb(239,228,233)" stroke="rgb(239,228,233)" stroke-width="1" opacity="0.1843137254901961" d="M 41.5 29 L 41.5 30 L 41.5 29 Z "></path><path fill="rgb(239,228,233)" stroke="rgb(239,228,233)" stroke-width="1" opacity="0.1843137254901961" d="M 54.5 29 L 54.5 30 L 54.5 29 Z "></path><path fill="rgb(239,228,233)" stroke="rgb(239,228,233)" stroke-width="1" opacity="0.1843137254901961" d="M 56.5 29 L 56.5 30 L 56.5 29 Z "></path><path fill="rgb(239,228,233)" stroke="rgb(239,228,233)" stroke-width="1" opacity="0.1843137254901961" d="M 17.5 30 L 17.5 31 L 17.5 30 Z "></path><path fill="rgb(239,228,233)" stroke="rgb(239,228,233)" stroke-width="1" opacity="0.1843137254901961" d="M 43.5 30 L 43.5 31 L 43.5 30 Z "></path><path fill="rgb(239,228,233)" stroke="rgb(239,228,233)" stroke-width="1" opacity="0.1843137254901961" d="M 52.5 30 L 52.5 31 L 52.5 30 Z "></path><path fill="rgb(239,228,233)" stroke="rgb(239,228,233)" stroke-width="1" opacity="0.1843137254901961" d="M 14.5 31 L 14.5 32 L 14.5 31 Z "></path><path fill="rgb(239,228,233)" stroke="rgb(239,228,233)" stroke-width="1" opacity="0.1843137254901961" d="M 19.5 31 L 19.5 32 L 19.5 31 Z "></path><path fill="rgb(239,228,233)" stroke="rgb(239,228,233)" stroke-width="1" opacity="0.1843137254901961" d="M 50.5 31 L 50.5 32 L 50.5 31 Z "></path><path fill="rgb(239,228,233)" stroke="rgb(239,228,233)" stroke-width="1" opacity="0.1843137254901961" d="M 17.5 32 L 17.5 33 L 17.5 32 Z "></path><path fill="rgb(239,228,233)" stroke="rgb(239,228,233)" stroke-width="1" opacity="0.1843137254901961" d="M 44.5 32 Q 47 33 45.5 34 Q 43 33 44.5 32 Z "></path><path fill="rgb(239,228,233)" stroke="rgb(239,228,233)" stroke-width="1" opacity="0.1843137254901961" d="M 47.5 32 L 47.5 33 L 47.5 32 Z "></path><path fill="rgb(239,228,233)" stroke="rgb(239,228,233)" stroke-width="1" opacity="0.1843137254901961" d="M 52.5 32 L 52.5 33 L 52.5 32 Z "></path><path fill="rgb(239,228,233)" stroke="rgb(239,228,233)" stroke-width="1" opacity="0.1843137254901961" d="M 19.5 33 L 19.5 34 L 19.5 33 Z "></path><path fill="rgb(239,228,233)" stroke="rgb(239,228,233)" stroke-width="1" opacity="0.1843137254901961" d="M 21.5 34 L 24 34.5 L 21.5 35 L 21.5 34 Z "></path><path fill="rgb(239,228,233)" stroke="rgb(239,228,233)" stroke-width="1" opacity="0.1843137254901961" d="M 47.5 34 L 47.5 35 L 47.5 34 Z "></path><path fill="rgb(239,228,233)" stroke="rgb(239,228,233)" stroke-width="1" opacity="0.1843137254901961" d="M 46.5 36 L 47 37.5 L 46 37.5 L 46.5 36 Z "></path><path fill="rgb(239,228,233)" stroke="rgb(239,228,233)" stroke-width="1" opacity="0.1843137254901961" d="M 5.5 38 L 6.5 39 L 23 39.5 L 5 40 L 5.5 38 Z "></path><path fill="rgb(239,228,233)" stroke="rgb(239,228,233)" stroke-width="1" opacity="0.1843137254901961" d="M 47.5 39 L 64 39.5 L 47.5 40 L 47.5 39 Z "></path><path fill="rgb(239,228,233)" stroke="rgb(239,228,233)" stroke-width="1" opacity="0.1843137254901961" d="M 23.5 49 L 23.5 50 L 23.5 49 Z "></path><path fill="rgb(239,228,233)" stroke="rgb(239,228,233)" stroke-width="1" opacity="0.1843137254901961" d="M 46.5 49 L 46.5 50 L 46.5 49 Z "></path><path fill="rgb(239,228,233)" stroke="rgb(239,228,233)" stroke-width="1" opacity="0.1843137254901961" d="M 19.5 50 Q 21 51 18.5 52 Q 17 51 19.5 50 Z "></path><path fill="rgb(239,228,233)" stroke="rgb(239,228,233)" stroke-width="1" opacity="0.1843137254901961" d="M 21.5 50 L 21.5 51 L 21.5 50 Z "></path><path fill="rgb(239,228,233)" stroke="rgb(239,228,233)" stroke-width="1" opacity="0.1843137254901961" d="M 49.5 50 L 49.5 51 L 49.5 50 Z "></path><path fill="rgb(239,228,233)" stroke="rgb(239,228,233)" stroke-width="1" opacity="0.1843137254901961" d="M 19.5 53 L 21 57.5 L 18.5 58 L 19 56.5 L 19.5 53 Z "></path><path fill="rgb(239,228,233)" stroke="rgb(239,228,233)" stroke-width="1" opacity="0.1843137254901961" d="M 51.5 53 L 52 56.5 Q 51 59 50 57.5 L 51.5 53 Z "></path><path fill="rgb(254,124,128)" stroke="rgb(254,124,128)" stroke-width="1" opacity="0.5686274509803921" d="M 33.5 11 L 34 26.5 L 35 27.5 L 31.5 28 Q 30.5 30.5 28 30 L 28 31.5 L 25 35.5 L 25 48.5 L 25.5 50 L 23 48.5 L 23 35.5 L 26 31.5 L 25.5 30 L 27.5 30 L 30.5 27 L 33 27 L 33.5 11 Z "></path><path fill="rgb(254,124,128)" stroke="rgb(254,124,128)" stroke-width="1" opacity="0.5686274509803921" d="M 25.5 19 L 25.5 20 L 25.5 19 Z "></path><path fill="rgb(254,124,128)" stroke="rgb(254,124,128)" stroke-width="1" opacity="0.5686274509803921" d="M 41.5 19 L 42 20.5 L 41 20.5 L 41.5 19 Z "></path><path fill="rgb(254,124,128)" stroke="rgb(254,124,128)" stroke-width="1" opacity="0.5686274509803921" d="M 52.5 19 L 54 19.5 L 42.5 30 L 42 29.5 L 52.5 19 Z "></path><path fill="rgb(254,124,128)" stroke="rgb(254,124,128)" stroke-width="1" opacity="0.5686274509803921" d="M 26.5 21 L 26.5 22 L 26.5 21 Z "></path><path fill="rgb(254,124,128)" stroke="rgb(254,124,128)" stroke-width="1" opacity="0.5686274509803921" d="M 40.5 22 L 40.5 23 L 40.5 22 Z "></path><path fill="rgb(254,124,128)" stroke="rgb(254,124,128)" stroke-width="1" opacity="0.5686274509803921" d="M 27.5 23 L 27.5 24 L 27.5 23 Z "></path><path fill="rgb(254,124,128)" stroke="rgb(254,124,128)" stroke-width="1" opacity="0.5686274509803921" d="M 39.5 24 L 40 25.5 L 39 25.5 L 39.5 24 Z "></path><path fill="rgb(254,124,128)" stroke="rgb(254,124,128)" stroke-width="1" opacity="0.5686274509803921" d="M 28.5 25 L 29 26.5 L 28 26.5 L 28.5 25 Z "></path><path fill="rgb(254,124,128)" stroke="rgb(254,124,128)" stroke-width="1" opacity="0.5686274509803921" d="M 38.5 27 L 38.5 28 L 38.5 27 Z "></path><path fill="rgb(254,124,128)" stroke="rgb(254,124,128)" stroke-width="1" opacity="0.5686274509803921" d="M 13.5 30 L 13.5 31 L 13.5 30 Z "></path><path fill="rgb(254,124,128)" stroke="rgb(254,124,128)" stroke-width="1" opacity="0.5686274509803921" d="M 53.5 30 L 53.5 31 L 53.5 30 Z "></path><path fill="rgb(254,124,128)" stroke="rgb(254,124,128)" stroke-width="1" opacity="0.5686274509803921" d="M 15.5 31 L 15.5 32 L 15.5 31 Z "></path><path fill="rgb(254,124,128)" stroke="rgb(254,124,128)" stroke-width="1" opacity="0.5686274509803921" d="M 51.5 31 L 51.5 32 L 51.5 31 Z "></path><path fill="rgb(254,124,128)" stroke="rgb(254,124,128)" stroke-width="1" opacity="0.5686274509803921" d="M 18.5 32 L 18.5 33 L 18.5 32 Z "></path><path fill="rgb(254,124,128)" stroke="rgb(254,124,128)" stroke-width="1" opacity="0.5686274509803921" d="M 48.5 32 L 48.5 33 L 48.5 32 Z "></path><path fill="rgb(254,124,128)" stroke="rgb(254,124,128)" stroke-width="1" opacity="0.5686274509803921" d="M 20.5 33 L 20.5 34 L 20.5 33 Z "></path><path fill="rgb(254,124,128)" stroke="rgb(254,124,128)" stroke-width="1" opacity="0.5686274509803921" d="M 46.5 33 L 46.5 34 L 46.5 33 Z "></path><path fill="rgb(254,124,128)" stroke="rgb(254,124,128)" stroke-width="1" opacity="0.5686274509803921" d="M 6.5 38 L 6.5 39 L 6.5 38 Z "></path><path fill="rgb(254,124,128)" stroke="rgb(254,124,128)" stroke-width="1" opacity="0.5686274509803921" d="M 19.5 51 L 19.5 52 L 19.5 51 Z "></path><path fill="rgb(192,184,197)" stroke="rgb(192,184,197)" stroke-width="1" opacity="0.8549019607843137" d="M 42.5 30 L 42.5 31 L 42.5 30 Z "></path><path fill="rgb(192,184,197)" stroke="rgb(192,184,197)" stroke-width="1" opacity="0.8549019607843137" d="M 54.5 30 L 54.5 31 L 54.5 30 Z "></path><path fill="rgb(192,184,197)" stroke="rgb(192,184,197)" stroke-width="1" opacity="0.8549019607843137" d="M 16.5 31 L 16.5 32 L 16.5 31 Z "></path><path fill="rgb(192,184,197)" stroke="rgb(192,184,197)" stroke-width="1" opacity="0.8549019607843137" d="M 49.5 32 L 49.5 33 L 49.5 32 Z "></path><path fill="rgb(192,184,197)" stroke="rgb(192,184,197)" stroke-width="1" opacity="0.8549019607843137" d="M 21.5 33 L 21.5 34 L 21.5 33 Z "></path><path fill="rgb(192,184,197)" stroke="rgb(192,184,197)" stroke-width="1" opacity="0.8549019607843137" d="M 24.5 33 L 24.5 34 L 24.5 33 Z "></path><path fill="rgb(192,184,197)" stroke="rgb(192,184,197)" stroke-width="1" opacity="0.8549019607843137" d="M 7.5 38 L 22 38.5 L 7.5 39 L 7.5 38 Z "></path><path fill="rgb(192,184,197)" stroke="rgb(192,184,197)" stroke-width="1" opacity="0.8549019607843137" d="M 46.5 38 L 62 38.5 L 46.5 39 L 46.5 38 Z "></path><path fill="rgb(192,184,197)" stroke="rgb(192,184,197)" stroke-width="1" opacity="0.8549019607843137" d="M 26.5 49 L 27.5 50 L 47 50.5 L 24.5 51 L 24.5 50 L 26.5 49 Z "></path><path fill="rgb(106,193,228)" stroke="rgb(106,193,228)" stroke-width="1" opacity="0.6470588235294118" d="M 54.5 19 L 55 19.5 L 44.5 30 L 44 29.5 L 54.5 19 Z "></path><path fill="rgb(106,193,228)" stroke="rgb(106,193,228)" stroke-width="1" opacity="0.6470588235294118" d="M 42.5 21 L 43 22.5 L 42 22.5 L 42.5 21 Z "></path><path fill="rgb(106,193,228)" stroke="rgb(106,193,228)" stroke-width="1" opacity="0.6470588235294118" d="M 28.5 22 Q 31 23 29.5 24 Q 27 23 28.5 22 Z "></path><path fill="rgb(106,193,228)" stroke="rgb(106,193,228)" stroke-width="1" opacity="0.6470588235294118" d="M 40.5 26 L 41 27.5 L 40 27.5 L 40.5 26 Z "></path><path fill="rgb(106,193,228)" stroke="rgb(106,193,228)" stroke-width="1" opacity="0.6470588235294118" d="M 56.5 30 L 56.5 31 L 56.5 30 Z "></path><path fill="rgb(106,193,228)" stroke="rgb(106,193,228)" stroke-width="1" opacity="0.6470588235294118" d="M 18.5 31 Q 21 32 19.5 33 Q 17 32 18.5 31 Z "></path><path fill="rgb(106,193,228)" stroke="rgb(106,193,228)" stroke-width="1" opacity="0.6470588235294118" d="M 52.5 31 Q 54 32 51.5 33 Q 50 32 52.5 31 Z "></path><path fill="rgb(106,193,228)" stroke="rgb(106,193,228)" stroke-width="1" opacity="0.6470588235294118" d="M 23.5 33 L 23.5 34 L 23.5 33 Z "></path><path fill="rgb(106,193,228)" stroke="rgb(106,193,228)" stroke-width="1" opacity="0.6470588235294118" d="M 44.5 34 L 44.5 35 L 44.5 34 Z "></path><path fill="rgb(106,193,228)" stroke="rgb(106,193,228)" stroke-width="1" opacity="0.6470588235294118" d="M 22.5 38 L 22.5 39 L 22.5 38 Z "></path><path fill="rgb(106,193,228)" stroke="rgb(106,193,228)" stroke-width="1" opacity="0.6470588235294118" d="M 62.5 38 L 62.5 39 L 62.5 38 Z "></path><path fill="rgb(22,139,195)" stroke="rgb(22,139,195)" stroke-width="1" opacity="1" d="M 34.5 28 L 35 29.5 L 34 29.5 L 34.5 28 Z "></path><path fill="rgb(22,139,195)" stroke="rgb(22,139,195)" stroke-width="1" opacity="1" d="M 31.5 30 L 32 30.5 L 29.5 33 L 29 32.5 L 31.5 30 Z "></path><path fill="rgb(22,139,195)" stroke="rgb(22,139,195)" stroke-width="1" opacity="1" d="M 33.5 33 L 33.5 34 L 33.5 33 Z "></path><path fill="rgb(22,139,195)" stroke="rgb(22,139,195)" stroke-width="1" opacity="1" d="M 37.5 33 L 37.5 34 L 37.5 33 Z "></path><path fill="rgb(22,139,195)" stroke="rgb(22,139,195)" stroke-width="1" opacity="1" d="M 27.5 34 L 28 36.5 L 27 36.5 L 27.5 34 Z "></path><path fill="rgb(22,139,195)" stroke="rgb(22,139,195)" stroke-width="1" opacity="1" d="M 29.5 37 L 30 38.5 L 29 38.5 L 29.5 37 Z "></path><path fill="rgb(22,139,195)" stroke="rgb(22,139,195)" stroke-width="1" opacity="1" d="M 41.5 37 L 41.5 38 L 41.5 37 Z "></path><path fill="rgb(22,139,195)" stroke="rgb(22,139,195)" stroke-width="1" opacity="1" d="M 25.5 38 L 27 38.5 L 25.5 39 L 25.5 38 Z "></path><path fill="rgb(22,139,195)" stroke="rgb(22,139,195)" stroke-width="1" opacity="1" d="M 25.5 40 L 27 40.5 L 25.5 41 L 25.5 40 Z "></path><path fill="rgb(22,139,195)" stroke="rgb(22,139,195)" stroke-width="1" opacity="1" d="M 25.5 42 Q 27.75 41.25 27 43.5 Q 26 45 25 42.5 L 25.5 42 Z "></path><path fill="rgb(22,139,195)" stroke="rgb(22,139,195)" stroke-width="1" opacity="1" d="M 26.5 45 L 27 46.5 L 26 46.5 L 26.5 45 Z "></path><path fill="rgb(22,139,195)" stroke="rgb(22,139,195)" stroke-width="1" opacity="1" d="M 25.5 48 L 25.5 49 L 25.5 48 Z "></path><path fill="rgb(22,139,195)" stroke="rgb(22,139,195)" stroke-width="1" opacity="1" d="M 29.5 48 L 42 48.5 L 29.5 49 L 29.5 48 Z "></path><path fill="rgb(0,117,191)" stroke="rgb(0,117,191)" stroke-width="1" opacity="1" d="M 37.5 34 L 37.5 35 L 37.5 34 Z "></path><path fill="rgb(0,117,191)" stroke="rgb(0,117,191)" stroke-width="1" opacity="1" d="M 39.5 35 L 39.5 36 L 39.5 35 Z "></path><path fill="rgb(0,117,191)" stroke="rgb(0,117,191)" stroke-width="1" opacity="1" d="M 30.5 37 L 30.5 38 L 30.5 37 Z "></path><path fill="rgb(0,117,191)" stroke="rgb(0,117,191)" stroke-width="1" opacity="1" d="M 40.5 37 L 40.5 38 L 40.5 37 Z "></path><path fill="rgb(0,117,191)" stroke="rgb(0,117,191)" stroke-width="1" opacity="1" d="M 41.5 39 L 42 47.5 L 41 47.5 L 41.5 39 Z "></path><path fill="rgb(231,243,247)" stroke="rgb(231,243,247)" stroke-width="1" opacity="1" d="M 40.5 30 L 45 35.5 L 45 48 L 43 47.5 L 43 35.5 L 40 30.5 L 40.5 30 Z "></path><path fill="rgb(231,243,247)" stroke="rgb(231,243,247)" stroke-width="1" opacity="1" d="M 27.5 49 L 46 49.5 L 27.5 50 L 27.5 49 Z "></path><path fill="rgb(231,243,247)" stroke="rgb(231,243,247)" stroke-width="1" opacity="1" d="M 21.5 57 L 50 57.5 L 21.5 58 L 21.5 57 Z "></path><path fill="rgb(0,118,191)" stroke="rgb(0,118,191)" stroke-width="1" opacity="1" d="M 34.5 33 Q 37.83 31.87 37 34.5 L 39 34.5 Q 38.25 36.75 40.5 36 L 40.5 38 L 42 38.5 L 41 39.5 L 41 48 L 29 48 L 29 39.5 Q 32.5 38 30 36.5 L 32.5 34 L 34.5 33 Z "></path><path fill="rgb(0,118,191)" stroke="rgb(0,118,191)" stroke-width="1" opacity="1" d="M 26.5 44 L 26.5 45 L 26.5 44 Z "></path><path fill="rgb(0,118,191)" stroke="rgb(0,118,191)" stroke-width="1" opacity="1" d="M 26.5 48 L 26.5 49 L 26.5 48 Z "></path><path fill="rgb(99,206,239)" stroke="rgb(99,206,239)" stroke-width="1" opacity="1" d="M 39.5 30 Q 42 31 40.5 32 Q 38 31 39.5 30 Z "></path><path fill="rgb(99,206,239)" stroke="rgb(99,206,239)" stroke-width="1" opacity="1" d="M 42.5 35 L 43 36.5 L 42 36.5 L 42.5 35 Z "></path><path fill="rgb(99,206,239)" stroke="rgb(99,206,239)" stroke-width="1" opacity="1" d="M 45.5 37 L 46 47.5 L 43.5 49 L 43.5 48 L 45 47.5 L 45.5 37 Z "></path><path fill="rgb(75,77,78)" stroke="rgb(75,77,78)" stroke-width="1" opacity="0.9372549019607843" d="M 20.5 52 L 20.5 53 L 20.5 52 Z "></path><path fill="rgb(75,77,78)" stroke="rgb(75,77,78)" stroke-width="1" opacity="0.9372549019607843" d="M 18.5 56 L 18.5 57 L 18.5 56 Z "></path><path fill="rgb(58,60,63)" stroke="rgb(58,60,63)" stroke-width="1" opacity="1" d="M 21 51 L 49.5 51 L 51 52.5 L 50.5 57 L 50 52 L 22.5 52 L 21.5 53 L 21 51 Z "></path><path fill="rgb(58,60,63)" stroke="rgb(58,60,63)" stroke-width="1" opacity="1" d="M 21.5 56 L 21.5 57 L 21.5 56 Z "></path><path fill="rgb(62,64,66)" stroke="rgb(62,64,66)" stroke-width="1" opacity="1" d="M 22.5 52 L 49.5 52 L 50 52.5 L 50 57 L 22.5 57 L 21.5 56 L 20 56.5 Q 18.5 52.13 21.5 53 L 22.5 52 Z "></path></svg>